<svg width="24" height="24" viewBox="0 0 24 24" fill="none" xmlns="http://www.w3.org/2000/svg">
<path d="M3.52761 21.3981L1.64249 0.25351H22.3575L20.4705 21.3949L11.9874 23.7467L3.52761 21.3981Z" fill="#1572B6"/>
<path d="M12.0002 21.9491L18.855 20.0486L20.4677 1.98224H12.0002V21.9491Z" fill="#33A9DC"/>
<path d="M12.0002 9.64295H15.4318L15.6688 6.98739H12.0002V4.39407H18.5031L18.4408 5.08989L17.8033 12.2363H12.0002V9.64295Z" fill="white"/>
<path d="M12.0156 16.378L12.0041 16.3813L9.11605 15.6015L8.93137 13.5332H6.32849L6.69168 17.6051L12.0037 19.0795L12.0156 19.0761V16.378Z" fill="#EBEBEB"/>
<path d="M15.2113 12.1266L14.899 15.5994L12.0066 16.3802V19.0783L17.323 17.6049L17.362 17.1667L17.8131 12.1266H15.2113Z" fill="white"/>
<path d="M12.009 4.39407V6.98739H5.745L5.69307 6.40464L5.57494 5.08989L5.51288 4.39407H12.009ZM12.0002 9.64332V12.2366H9.1485L9.09657 11.6539L8.97825 10.3391L8.91638 9.64332H12.0002Z" fill="#EBEBEB"/>
</svg>
